<svg width="17" height="15" viewBox="0 0 17 15" fill="none" xmlns="http://www.w3.org/2000/svg">
<path d="M14.8771 1.6733C14.0294 0.825415 12.9056 0.309912 11.71 0.220536C10.5145 0.131161 9.3265 0.473849 8.36222 1.18628C7.3464 0.430717 6.08202 0.0881079 4.82371 0.227447C3.56539 0.366787 2.4066 0.977724 1.5807 1.93723C0.754795 2.89674 0.32312 4.13354 0.372603 5.39858C0.422086 6.66362 0.949052 7.86293 1.84738 8.75499L7.79537 14.703C7.86959 14.7778 7.95789 14.8372 8.05518 14.8777C8.15247 14.9183 8.25682 14.9391 8.36222 14.9391C8.46762 14.9391 8.57197 14.9183 8.66926 14.8777C8.76655 14.8372 8.85485 14.7778 8.92908 14.703L14.8771 8.75499C15.3422 8.29011 15.7113 7.73812 15.963 7.13056C16.2148 6.52301 16.3444 5.8718 16.3444 5.21414C16.3444 4.55649 16.2148 3.90528 15.963 3.29772C15.7113 2.69017 15.3422 2.13818 14.8771 1.6733V1.6733ZM13.7513 7.62926L8.36222 13.0104L2.97311 7.62926C2.49821 7.15239 2.1747 6.54589 2.04317 5.88586C1.91164 5.22583 1.97794 4.54165 2.23376 3.91915C2.48958 3.29666 2.92353 2.76357 3.48116 2.38675C4.03879 2.00994 4.69528 1.80618 5.36827 1.80104C6.26734 1.80324 7.12879 2.16218 7.76343 2.79902C7.83765 2.87385 7.92595 2.93325 8.02324 2.97378C8.12053 3.01432 8.22489 3.03518 8.33029 3.03518C8.43568 3.03518 8.54004 3.01432 8.63733 2.97378C8.73462 2.93325 8.82292 2.87385 8.89714 2.79902C9.55048 2.23287 10.3945 1.93608 11.2584 1.96872C12.1223 2.00136 12.9415 2.36099 13.5503 2.97482C14.159 3.58865 14.5119 4.41084 14.5373 5.27497C14.5628 6.13911 14.259 6.98065 13.6875 7.62926H13.7513Z" fill="#535399"/>
</svg>
