<svg width="16" height="15" viewBox="0 0 16 15" fill="none" xmlns="http://www.w3.org/2000/svg">
<path d="M0.808838 0.715308C0.808838 0.547677 0.875429 0.386911 0.993963 0.268377C1.1125 0.149843 1.27326 0.083252 1.44089 0.083252H1.91114C2.71175 0.083252 3.19211 0.621764 3.466 1.12235C3.64888 1.45608 3.78119 1.8429 3.88485 2.19348C3.91288 2.19126 3.941 2.19014 3.96912 2.19011H14.5017C15.2012 2.19011 15.7068 2.85924 15.5147 3.53259L13.9742 8.93373C13.836 9.41818 13.5438 9.84444 13.1418 10.148C12.7397 10.4515 12.2497 10.6157 11.7459 10.6158H6.73331C6.22556 10.6159 5.73184 10.4491 5.32806 10.1413C4.92428 9.83341 4.63278 9.40146 4.49836 8.91182L3.85788 6.57574L2.79602 2.99577L2.79518 2.98903C2.66371 2.51119 2.54067 2.0637 2.35695 1.72997C2.18082 1.40551 2.03924 1.34736 1.91199 1.34736H1.44089C1.27326 1.34736 1.1125 1.28077 0.993963 1.16224C0.875429 1.04371 0.808838 0.88294 0.808838 0.715308ZM5.08407 6.26898L5.71697 8.57725C5.84338 9.03401 6.25885 9.35173 6.73331 9.35173H11.7459C11.9749 9.35172 12.1977 9.27711 12.3804 9.13919C12.5632 9.00127 12.6961 8.80755 12.7589 8.58736L14.2228 3.45422H4.25144L5.07227 6.22431L5.08407 6.26898Z" fill="#535399"/>
<path d="M7.97216 13.1457C7.97216 13.5927 7.79459 14.0214 7.4785 14.3375C7.16241 14.6536 6.7337 14.8312 6.28668 14.8312C5.83966 14.8312 5.41095 14.6536 5.09486 14.3375C4.77877 14.0214 4.6012 13.5927 4.6012 13.1457C4.6012 12.6987 4.77877 12.27 5.09486 11.9539C5.41095 11.6378 5.83966 11.4602 6.28668 11.4602C6.7337 11.4602 7.16241 11.6378 7.4785 11.9539C7.79459 12.27 7.97216 12.6987 7.97216 13.1457V13.1457ZM6.70805 13.1457C6.70805 13.0339 6.66366 12.9268 6.58463 12.8477C6.50561 12.7687 6.39843 12.7243 6.28668 12.7243C6.17493 12.7243 6.06775 12.7687 5.98873 12.8477C5.9097 12.9268 5.86531 13.0339 5.86531 13.1457C5.86531 13.2574 5.9097 13.3646 5.98873 13.4436C6.06775 13.5227 6.17493 13.5671 6.28668 13.5671C6.39843 13.5671 6.50561 13.5227 6.58463 13.4436C6.66366 13.3646 6.70805 13.2574 6.70805 13.1457Z" fill="#535399"/>
<path d="M13.8713 13.1457C13.8713 13.5927 13.6938 14.0214 13.3777 14.3375C13.0616 14.6536 12.6329 14.8312 12.1859 14.8312C11.7388 14.8312 11.3101 14.6536 10.994 14.3375C10.6779 14.0214 10.5004 13.5927 10.5004 13.1457C10.5004 12.6987 10.6779 12.27 10.994 11.9539C11.3101 11.6378 11.7388 11.4602 12.1859 11.4602C12.6329 11.4602 13.0616 11.6378 13.3777 11.9539C13.6938 12.27 13.8713 12.6987 13.8713 13.1457V13.1457ZM12.6072 13.1457C12.6072 13.0339 12.5628 12.9268 12.4838 12.8477C12.4048 12.7687 12.2976 12.7243 12.1859 12.7243C12.0741 12.7243 11.9669 12.7687 11.8879 12.8477C11.8089 12.9268 11.7645 13.0339 11.7645 13.1457C11.7645 13.2574 11.8089 13.3646 11.8879 13.4436C11.9669 13.5227 12.0741 13.5671 12.1859 13.5671C12.2976 13.5671 12.4048 13.5227 12.4838 13.4436C12.5628 13.3646 12.6072 13.2574 12.6072 13.1457Z" fill="#535399"/>
</svg>
