<svg width="68" height="13" viewBox="0 0 68 13" fill="none" xmlns="http://www.w3.org/2000/svg">
<path d="M10.6418 4.13792L7.6664 3.7055L6.33632 1.00901C6.29999 0.935185 6.24023 0.875419 6.1664 0.839091C5.98124 0.747685 5.75624 0.823857 5.66366 1.00901L4.33358 3.7055L1.35819 4.13792C1.27616 4.14964 1.20116 4.18831 1.14374 4.2469C1.07432 4.31826 1.03607 4.41425 1.03739 4.51379C1.0387 4.61333 1.07949 4.70828 1.15077 4.77776L3.30351 6.87659L2.79491 9.84026C2.78299 9.9092 2.79062 9.98011 2.81694 10.0449C2.84325 10.1098 2.88721 10.1659 2.94382 10.207C3.00043 10.2481 3.06743 10.2726 3.13722 10.2776C3.20701 10.2825 3.27679 10.2679 3.33866 10.2352L5.99999 8.83597L8.66132 10.2352C8.73398 10.2739 8.81835 10.2867 8.89921 10.2727C9.10312 10.2375 9.24023 10.0442 9.20507 9.84026L8.69648 6.87659L10.8492 4.77776C10.9078 4.72034 10.9465 4.64534 10.9582 4.56331C10.9898 4.35823 10.8469 4.16839 10.6418 4.13792V4.13792Z" fill="#FFC107"/>
<path d="M24.6418 4.13792L21.6664 3.7055L20.3363 1.00901C20.3 0.935185 20.2402 0.875419 20.1664 0.839091C19.9812 0.747685 19.7562 0.823857 19.6637 1.00901L18.3336 3.7055L15.3582 4.13792C15.2762 4.14964 15.2012 4.18831 15.1437 4.2469C15.0743 4.31826 15.0361 4.41425 15.0374 4.51379C15.0387 4.61333 15.0795 4.70828 15.1508 4.77776L17.3035 6.87659L16.7949 9.84026C16.783 9.9092 16.7906 9.98011 16.8169 10.0449C16.8433 10.1098 16.8872 10.1659 16.9438 10.207C17.0004 10.2481 17.0674 10.2726 17.1372 10.2776C17.207 10.2825 17.2768 10.2679 17.3387 10.2352L20 8.83597L22.6613 10.2352C22.734 10.2739 22.8184 10.2867 22.8992 10.2727C23.1031 10.2375 23.2402 10.0442 23.2051 9.84026L22.6965 6.87659L24.8492 4.77776C24.9078 4.72034 24.9465 4.64534 24.9582 4.56331C24.9898 4.35823 24.8469 4.16839 24.6418 4.13792V4.13792Z" fill="#FFC107"/>
<path d="M38.6418 4.13792L35.6664 3.7055L34.3363 1.00901C34.3 0.935185 34.2402 0.875419 34.1664 0.839091C33.9812 0.747685 33.7562 0.823857 33.6637 1.00901L32.3336 3.7055L29.3582 4.13792C29.2762 4.14964 29.2012 4.18831 29.1437 4.2469C29.0743 4.31826 29.0361 4.41425 29.0374 4.51379C29.0387 4.61333 29.0795 4.70828 29.1508 4.77776L31.3035 6.87659L30.7949 9.84026C30.783 9.9092 30.7906 9.98011 30.8169 10.0449C30.8433 10.1098 30.8872 10.1659 30.9438 10.207C31.0004 10.2481 31.0674 10.2726 31.1372 10.2776C31.207 10.2825 31.2768 10.2679 31.3387 10.2352L34 8.83597L36.6613 10.2352C36.734 10.2739 36.8184 10.2867 36.8992 10.2727C37.1031 10.2375 37.2402 10.0442 37.2051 9.84026L36.6965 6.87659L38.8492 4.77776C38.9078 4.72034 38.9465 4.64534 38.9582 4.56331C38.9898 4.35823 38.8469 4.16839 38.6418 4.13792V4.13792Z" fill="#B2B2B2"/>
<path d="M52.6418 5.13792L49.6664 4.7055L48.3363 2.00901C48.3 1.93519 48.2402 1.87542 48.1664 1.83909C47.9812 1.74769 47.7562 1.82386 47.6637 2.00901L46.3336 4.7055L43.3582 5.13792C43.2762 5.14964 43.2012 5.18831 43.1437 5.2469C43.0743 5.31826 43.0361 5.41425 43.0374 5.51379C43.0387 5.61333 43.0795 5.70828 43.1508 5.77776L45.3035 7.87659L44.7949 10.8403C44.783 10.9092 44.7906 10.9801 44.8169 11.0449C44.8433 11.1098 44.8872 11.1659 44.9438 11.207C45.0004 11.2481 45.0674 11.2726 45.1372 11.2776C45.207 11.2825 45.2768 11.2679 45.3387 11.2352L48 9.83597L50.6613 11.2352C50.734 11.2739 50.8184 11.2867 50.8992 11.2727C51.1031 11.2375 51.2402 11.0442 51.2051 10.8403L50.6965 7.87659L52.8492 5.77776C52.9078 5.72034 52.9465 5.64534 52.9582 5.56331C52.9898 5.35823 52.8469 5.16839 52.6418 5.13792V5.13792Z" fill="#B2B2B2"/>
<path d="M66.6418 5.13792L63.6664 4.7055L62.3363 2.00901C62.3 1.93519 62.2402 1.87542 62.1664 1.83909C61.9812 1.74769 61.7562 1.82386 61.6637 2.00901L60.3336 4.7055L57.3582 5.13792C57.2762 5.14964 57.2012 5.18831 57.1437 5.2469C57.0743 5.31826 57.0361 5.41425 57.0374 5.51379C57.0387 5.61333 57.0795 5.70828 57.1508 5.77776L59.3035 7.87659L58.7949 10.8403C58.783 10.9092 58.7906 10.9801 58.8169 11.0449C58.8433 11.1098 58.8872 11.1659 58.9438 11.207C59.0004 11.2481 59.0674 11.2726 59.1372 11.2776C59.207 11.2825 59.2768 11.2679 59.3387 11.2352L62 9.83597L64.6613 11.2352C64.734 11.2739 64.8184 11.2867 64.8992 11.2727C65.1031 11.2375 65.2402 11.0442 65.2051 10.8403L64.6965 7.87659L66.8492 5.77776C66.9078 5.72034 66.9465 5.64534 66.9582 5.56331C66.9898 5.35823 66.8469 5.16839 66.6418 5.13792V5.13792Z" fill="#B2B2B2"/>
</svg>
