<svg width="15" height="15" viewBox="0 0 15 15" fill="none" xmlns="http://www.w3.org/2000/svg">
<path d="M8.80738 9.48649V7.35746H10.9364C11.1246 7.35746 11.3051 7.28269 11.4382 7.1496C11.5713 7.01651 11.6461 6.836 11.6461 6.64778C11.6461 6.45956 11.5713 6.27905 11.4382 6.14596C11.3051 6.01287 11.1246 5.9381 10.9364 5.9381H8.80738V3.80907C8.80738 3.62085 8.73261 3.44034 8.59952 3.30725C8.46643 3.17416 8.28592 3.09939 8.0977 3.09939C7.90949 3.09939 7.72898 3.17416 7.59589 3.30725C7.4628 3.44034 7.38803 3.62085 7.38803 3.80907V5.9381H5.259C5.07078 5.9381 4.89027 6.01287 4.75718 6.14596C4.62409 6.27905 4.54932 6.45956 4.54932 6.64778C4.54932 6.836 4.62409 7.01651 4.75718 7.1496C4.89027 7.28269 5.07078 7.35746 5.259 7.35746H7.38803V9.48649C7.38803 9.67471 7.4628 9.85521 7.59589 9.98831C7.72898 10.1214 7.90949 10.1962 8.0977 10.1962C8.28592 10.1962 8.46643 10.1214 8.59952 9.98831C8.73261 9.85521 8.80738 9.67471 8.80738 9.48649ZM1.5048 14.2484L4.11641 11.6155C5.3907 12.6375 7.00814 13.1325 8.63614 12.9985C10.2641 12.8646 11.779 12.1121 12.8691 10.8956C13.9593 9.67907 14.5419 8.09113 14.4972 6.45824C14.4526 4.82535 13.784 3.27165 12.6289 2.11659C11.4738 0.961533 9.92013 0.292923 8.28724 0.248242C6.65436 0.20356 5.06641 0.786203 3.84992 1.87637C2.63342 2.96653 1.88085 4.48135 1.74694 6.10935C1.61303 7.73734 2.10796 9.35478 3.12996 10.6291L0.518351 13.2407C0.451834 13.3067 0.399038 13.3851 0.363009 13.4716C0.326979 13.5581 0.30843 13.6509 0.30843 13.7446C0.30843 13.8382 0.326979 13.931 0.363009 14.0175C0.399038 14.104 0.451834 14.1824 0.518351 14.2484C0.650682 14.3763 0.82753 14.4478 1.01158 14.4478C1.19562 14.4478 1.37247 14.3763 1.5048 14.2484V14.2484ZM3.12996 6.64778C3.12996 5.66525 3.42132 4.70479 3.96718 3.88785C4.51304 3.07091 5.2889 2.43418 6.19663 2.05818C7.10437 1.68219 8.10322 1.58381 9.06686 1.77549C10.0305 1.96717 10.9157 2.4403 11.6104 3.13505C12.3052 3.82981 12.7783 4.71497 12.97 5.67862C13.1617 6.64227 13.0633 7.64111 12.6873 8.54885C12.3113 9.45659 11.6746 10.2324 10.8576 10.7783C10.0407 11.3242 9.08023 11.6155 8.0977 11.6155C6.78018 11.6155 5.51661 11.0921 4.58498 10.1605C3.65335 9.22887 3.12996 7.96531 3.12996 6.64778V6.64778Z" fill="#535399"/>
</svg>
