<svg width="1021" height="248" viewBox="0 0 1021 248" fill="none" xmlns="http://www.w3.org/2000/svg">
<line x1="0.5" y1="2.18552e-08" x2="0.5" y2="4" stroke="#D2D1D1"/>
<line x1="0.5" y1="8" x2="0.5" y2="12" stroke="#D2D1D1"/>
<line x1="0.5" y1="16" x2="0.5" y2="20" stroke="#D2D1D1"/>
<line x1="0.5" y1="24" x2="0.5" y2="28" stroke="#D2D1D1"/>
<line x1="0.5" y1="32" x2="0.5" y2="36" stroke="#D2D1D1"/>
<line x1="0.5" y1="40" x2="0.5" y2="44" stroke="#D2D1D1"/>
<line x1="0.5" y1="48" x2="0.5" y2="52" stroke="#D2D1D1"/>
<line x1="0.5" y1="56" x2="0.5" y2="60" stroke="#D2D1D1"/>
<line x1="0.5" y1="64" x2="0.5" y2="68" stroke="#D2D1D1"/>
<line x1="0.5" y1="72" x2="0.5" y2="76" stroke="#D2D1D1"/>
<line x1="0.5" y1="80" x2="0.5" y2="84" stroke="#D2D1D1"/>
<line x1="0.5" y1="88" x2="0.5" y2="92" stroke="#D2D1D1"/>
<line x1="0.5" y1="96" x2="0.5" y2="100" stroke="#D2D1D1"/>
<line x1="0.5" y1="104" x2="0.5" y2="108" stroke="#D2D1D1"/>
<line x1="0.5" y1="112" x2="0.5" y2="116" stroke="#D2D1D1"/>
<line x1="0.5" y1="120" x2="0.5" y2="124" stroke="#D2D1D1"/>
<line x1="0.5" y1="128" x2="0.5" y2="132" stroke="#D2D1D1"/>
<line x1="0.5" y1="136" x2="0.5" y2="140" stroke="#D2D1D1"/>
<line x1="0.5" y1="144" x2="0.5" y2="148" stroke="#D2D1D1"/>
<line x1="0.5" y1="152" x2="0.5" y2="156" stroke="#D2D1D1"/>
<line x1="0.5" y1="160" x2="0.5" y2="164" stroke="#D2D1D1"/>
<line x1="0.5" y1="168" x2="0.5" y2="172" stroke="#D2D1D1"/>
<line x1="0.5" y1="176" x2="0.5" y2="180" stroke="#D2D1D1"/>
<line x1="0.5" y1="184" x2="0.5" y2="188" stroke="#D2D1D1"/>
<line x1="0.5" y1="192" x2="0.5" y2="196" stroke="#D2D1D1"/>
<line x1="0.5" y1="200" x2="0.5" y2="204" stroke="#D2D1D1"/>
<line x1="0.5" y1="208" x2="0.5" y2="212" stroke="#D2D1D1"/>
<line x1="0.5" y1="216" x2="0.5" y2="220" stroke="#D2D1D1"/>
<line x1="0.5" y1="224" x2="0.5" y2="228" stroke="#D2D1D1"/>
<line x1="0.5" y1="232" x2="0.5" y2="236" stroke="#D2D1D1"/>
<line x1="0.5" y1="240" x2="0.5" y2="244" stroke="#D2D1D1"/>
<line x1="1" y1="247.5" x2="5" y2="247.5" stroke="#D2D1D1"/>
<line x1="9" y1="247.5" x2="13" y2="247.5" stroke="#D2D1D1"/>
<line x1="17" y1="247.5" x2="21" y2="247.5" stroke="#D2D1D1"/>
<line x1="25" y1="247.5" x2="29" y2="247.5" stroke="#D2D1D1"/>
<line x1="33" y1="247.5" x2="37" y2="247.5" stroke="#D2D1D1"/>
<line x1="41" y1="247.5" x2="45" y2="247.5" stroke="#D2D1D1"/>
<line x1="49" y1="247.5" x2="53" y2="247.5" stroke="#D2D1D1"/>
<line x1="57" y1="247.5" x2="61" y2="247.5" stroke="#D2D1D1"/>
<line x1="65" y1="247.5" x2="69" y2="247.5" stroke="#D2D1D1"/>
<line x1="73" y1="247.5" x2="77" y2="247.5" stroke="#D2D1D1"/>
<line x1="81" y1="247.5" x2="85" y2="247.5" stroke="#D2D1D1"/>
<line x1="89" y1="247.5" x2="93" y2="247.5" stroke="#D2D1D1"/>
<line x1="97" y1="247.5" x2="101" y2="247.5" stroke="#D2D1D1"/>
<line x1="105" y1="247.5" x2="109" y2="247.5" stroke="#D2D1D1"/>
<line x1="113" y1="247.5" x2="117" y2="247.5" stroke="#D2D1D1"/>
<line x1="121" y1="247.5" x2="125" y2="247.5" stroke="#D2D1D1"/>
<line x1="129" y1="247.5" x2="133" y2="247.5" stroke="#D2D1D1"/>
<line x1="137" y1="247.5" x2="141" y2="247.5" stroke="#D2D1D1"/>
<line x1="145" y1="247.5" x2="149" y2="247.5" stroke="#D2D1D1"/>
<line x1="153" y1="247.5" x2="157" y2="247.5" stroke="#D2D1D1"/>
<line x1="161" y1="247.5" x2="165" y2="247.5" stroke="#D2D1D1"/>
<line x1="169" y1="247.5" x2="173" y2="247.5" stroke="#D2D1D1"/>
<line x1="177" y1="247.5" x2="181" y2="247.5" stroke="#D2D1D1"/>
<line x1="185" y1="247.5" x2="189" y2="247.5" stroke="#D2D1D1"/>
<line x1="193" y1="247.5" x2="197" y2="247.5" stroke="#D2D1D1"/>
<line x1="201" y1="247.5" x2="205" y2="247.5" stroke="#D2D1D1"/>
<line x1="209" y1="247.5" x2="213" y2="247.5" stroke="#D2D1D1"/>
<line x1="217" y1="247.5" x2="221" y2="247.5" stroke="#D2D1D1"/>
<line x1="225" y1="247.5" x2="229" y2="247.5" stroke="#D2D1D1"/>
<line x1="233" y1="247.5" x2="237" y2="247.5" stroke="#D2D1D1"/>
<line x1="241" y1="247.5" x2="245" y2="247.5" stroke="#D2D1D1"/>
<line x1="249" y1="247.5" x2="253" y2="247.5" stroke="#D2D1D1"/>
<line x1="257" y1="247.5" x2="261" y2="247.5" stroke="#D2D1D1"/>
<line x1="265" y1="247.5" x2="269" y2="247.5" stroke="#D2D1D1"/>
<line x1="273" y1="247.5" x2="277" y2="247.5" stroke="#D2D1D1"/>
<line x1="281" y1="247.5" x2="285" y2="247.5" stroke="#D2D1D1"/>
<line x1="289" y1="247.5" x2="293" y2="247.5" stroke="#D2D1D1"/>
<line x1="297" y1="247.5" x2="301" y2="247.5" stroke="#D2D1D1"/>
<line x1="305" y1="247.5" x2="309" y2="247.5" stroke="#D2D1D1"/>
<line x1="313" y1="247.5" x2="317" y2="247.5" stroke="#D2D1D1"/>
<line x1="321" y1="247.5" x2="325" y2="247.5" stroke="#D2D1D1"/>
<line x1="329" y1="247.5" x2="333" y2="247.5" stroke="#D2D1D1"/>
<line x1="337" y1="247.5" x2="341" y2="247.5" stroke="#D2D1D1"/>
<line x1="345" y1="247.5" x2="349" y2="247.5" stroke="#D2D1D1"/>
<line x1="353" y1="247.5" x2="357" y2="247.5" stroke="#D2D1D1"/>
<line x1="361" y1="247.5" x2="365" y2="247.5" stroke="#D2D1D1"/>
<line x1="369" y1="247.5" x2="373" y2="247.5" stroke="#D2D1D1"/>
<line x1="377" y1="247.5" x2="381" y2="247.5" stroke="#D2D1D1"/>
<line x1="385" y1="247.5" x2="389" y2="247.5" stroke="#D2D1D1"/>
<line x1="393" y1="247.5" x2="397" y2="247.5" stroke="#D2D1D1"/>
<line x1="401" y1="247.5" x2="405" y2="247.5" stroke="#D2D1D1"/>
<line x1="409" y1="247.5" x2="413" y2="247.5" stroke="#D2D1D1"/>
<line x1="417" y1="247.5" x2="421" y2="247.5" stroke="#D2D1D1"/>
<line x1="425" y1="247.5" x2="429" y2="247.5" stroke="#D2D1D1"/>
<line x1="433" y1="247.5" x2="437" y2="247.5" stroke="#D2D1D1"/>
<line x1="441" y1="247.5" x2="445" y2="247.5" stroke="#D2D1D1"/>
<line x1="449" y1="247.5" x2="453" y2="247.5" stroke="#D2D1D1"/>
<line x1="457" y1="247.5" x2="461" y2="247.5" stroke="#D2D1D1"/>
<line x1="465" y1="247.5" x2="469" y2="247.5" stroke="#D2D1D1"/>
<line x1="473" y1="247.5" x2="477" y2="247.5" stroke="#D2D1D1"/>
<line x1="481" y1="247.5" x2="485" y2="247.5" stroke="#D2D1D1"/>
<line x1="489" y1="247.5" x2="493" y2="247.5" stroke="#D2D1D1"/>
<line x1="497" y1="247.5" x2="501" y2="247.5" stroke="#D2D1D1"/>
<line x1="505" y1="247.5" x2="509" y2="247.5" stroke="#D2D1D1"/>
<line x1="513" y1="247.5" x2="517" y2="247.5" stroke="#D2D1D1"/>
<line x1="521" y1="247.5" x2="525" y2="247.5" stroke="#D2D1D1"/>
<line x1="529" y1="247.5" x2="533" y2="247.5" stroke="#D2D1D1"/>
<line x1="537" y1="247.5" x2="541" y2="247.5" stroke="#D2D1D1"/>
<line x1="545" y1="247.5" x2="549" y2="247.5" stroke="#D2D1D1"/>
<line x1="553" y1="247.5" x2="557" y2="247.5" stroke="#D2D1D1"/>
<line x1="561" y1="247.5" x2="565" y2="247.5" stroke="#D2D1D1"/>
<line x1="569" y1="247.5" x2="573" y2="247.5" stroke="#D2D1D1"/>
<line x1="577" y1="247.5" x2="581" y2="247.5" stroke="#D2D1D1"/>
<line x1="585" y1="247.5" x2="589" y2="247.5" stroke="#D2D1D1"/>
<line x1="593" y1="247.5" x2="597" y2="247.5" stroke="#D2D1D1"/>
<line x1="601" y1="247.5" x2="605" y2="247.5" stroke="#D2D1D1"/>
<line x1="609" y1="247.5" x2="613" y2="247.5" stroke="#D2D1D1"/>
<line x1="617" y1="247.5" x2="621" y2="247.5" stroke="#D2D1D1"/>
<line x1="625" y1="247.5" x2="629" y2="247.5" stroke="#D2D1D1"/>
<line x1="633" y1="247.5" x2="637" y2="247.5" stroke="#D2D1D1"/>
<line x1="641" y1="247.5" x2="645" y2="247.5" stroke="#D2D1D1"/>
<line x1="649" y1="247.5" x2="653" y2="247.5" stroke="#D2D1D1"/>
<line x1="657" y1="247.5" x2="661" y2="247.5" stroke="#D2D1D1"/>
<line x1="665" y1="247.5" x2="669" y2="247.5" stroke="#D2D1D1"/>
<line x1="673" y1="247.5" x2="677" y2="247.5" stroke="#D2D1D1"/>
<line x1="681" y1="247.5" x2="685" y2="247.5" stroke="#D2D1D1"/>
<line x1="689" y1="247.5" x2="693" y2="247.5" stroke="#D2D1D1"/>
<line x1="697" y1="247.5" x2="701" y2="247.5" stroke="#D2D1D1"/>
<line x1="705" y1="247.5" x2="709" y2="247.5" stroke="#D2D1D1"/>
<line x1="713" y1="247.5" x2="717" y2="247.5" stroke="#D2D1D1"/>
<line x1="721" y1="247.5" x2="725" y2="247.5" stroke="#D2D1D1"/>
<line x1="729" y1="247.5" x2="733" y2="247.5" stroke="#D2D1D1"/>
<line x1="737" y1="247.5" x2="741" y2="247.5" stroke="#D2D1D1"/>
<line x1="745" y1="247.5" x2="749" y2="247.5" stroke="#D2D1D1"/>
<line x1="753" y1="247.5" x2="757" y2="247.5" stroke="#D2D1D1"/>
<line x1="761" y1="247.5" x2="765" y2="247.5" stroke="#D2D1D1"/>
<line x1="769" y1="247.5" x2="773" y2="247.5" stroke="#D2D1D1"/>
<line x1="777" y1="247.5" x2="781" y2="247.5" stroke="#D2D1D1"/>
<line x1="785" y1="247.5" x2="789" y2="247.5" stroke="#D2D1D1"/>
<line x1="793" y1="247.5" x2="797" y2="247.5" stroke="#D2D1D1"/>
<line x1="801" y1="247.5" x2="805" y2="247.5" stroke="#D2D1D1"/>
<line x1="809" y1="247.5" x2="813" y2="247.5" stroke="#D2D1D1"/>
<line x1="817" y1="247.5" x2="821" y2="247.5" stroke="#D2D1D1"/>
<line x1="825" y1="247.5" x2="829" y2="247.5" stroke="#D2D1D1"/>
<line x1="833" y1="247.5" x2="837" y2="247.5" stroke="#D2D1D1"/>
<line x1="841" y1="247.5" x2="845" y2="247.5" stroke="#D2D1D1"/>
<line x1="849" y1="247.5" x2="853" y2="247.5" stroke="#D2D1D1"/>
<line x1="857" y1="247.5" x2="861" y2="247.5" stroke="#D2D1D1"/>
<line x1="865" y1="247.5" x2="869" y2="247.5" stroke="#D2D1D1"/>
<line x1="873" y1="247.5" x2="877" y2="247.5" stroke="#D2D1D1"/>
<line x1="881" y1="247.5" x2="885" y2="247.5" stroke="#D2D1D1"/>
<line x1="889" y1="247.5" x2="893" y2="247.5" stroke="#D2D1D1"/>
<line x1="897" y1="247.5" x2="901" y2="247.5" stroke="#D2D1D1"/>
<line x1="905" y1="247.5" x2="909" y2="247.5" stroke="#D2D1D1"/>
<line x1="913" y1="247.5" x2="917" y2="247.5" stroke="#D2D1D1"/>
<line x1="921" y1="247.5" x2="925" y2="247.5" stroke="#D2D1D1"/>
<line x1="929" y1="247.5" x2="933" y2="247.5" stroke="#D2D1D1"/>
<line x1="937" y1="247.5" x2="941" y2="247.5" stroke="#D2D1D1"/>
<line x1="945" y1="247.5" x2="949" y2="247.5" stroke="#D2D1D1"/>
<line x1="953" y1="247.5" x2="957" y2="247.5" stroke="#D2D1D1"/>
<line x1="961" y1="247.5" x2="965" y2="247.5" stroke="#D2D1D1"/>
<line x1="969" y1="247.5" x2="973" y2="247.5" stroke="#D2D1D1"/>
<line x1="977" y1="247.5" x2="981" y2="247.5" stroke="#D2D1D1"/>
<line x1="985" y1="247.5" x2="989" y2="247.5" stroke="#D2D1D1"/>
<line x1="993" y1="247.5" x2="997" y2="247.5" stroke="#D2D1D1"/>
<line x1="1001" y1="247.5" x2="1005" y2="247.5" stroke="#D2D1D1"/>
<line x1="1009" y1="247.5" x2="1013" y2="247.5" stroke="#D2D1D1"/>
<line x1="1017" y1="247.5" x2="1021" y2="247.5" stroke="#D2D1D1"/>
</svg>
