<svg width="65" height="43" viewBox="0 0 65 43" fill="none" xmlns="http://www.w3.org/2000/svg">
<path d="M15.9171 25.5373V36.1666H53.275C54.3424 36.1666 55.2076 35.3013 55.2076 34.234C55.2076 33.2956 55.2076 26.4738 55.2076 25.5373L35.5623 22.9603L15.9171 25.5373Z" fill="#8B9BA9"/>
<path d="M51.3423 25.022V32.3015H15.9171V36.1667H53.275C54.3424 36.1667 55.2076 35.3014 55.2076 34.2341C55.2076 33.3448 55.2076 26.4096 55.2076 25.5373L51.3423 25.022Z" fill="#6C7A88"/>
<path d="M56.9474 0.0691833H21.7157C20.6484 0.0691833 19.7831 0.934476 19.7831 2.00179V8.02444H6.89457C5.08668 8.02444 3.52024 9.2778 3.12354 11.0416L1.66081 17.5463C1.28511 19.2171 1.09546 20.9245 1.09546 22.637V36.1664H19.7831C19.7831 35.8519 19.7831 31.0719 19.7831 25.5371H56.9475C58.0148 25.5371 58.8801 24.6718 58.8801 23.6045V2.00179C58.88 0.934347 58.0149 0.0691833 56.9474 0.0691833Z" fill="#FF7E40"/>
<path d="M64.034 17.2374H58.8801V13.7694H61.4571C61.9909 13.7694 62.4234 13.3368 62.4234 12.8031C62.4234 12.2695 61.9909 11.8368 61.4571 11.8368H58.8801V8.36883H62.7455C63.2793 8.36883 63.7118 7.93618 63.7118 7.40252C63.7118 6.86887 63.2793 6.43622 62.7455 6.43622H58.8801V2.96809H64.034C64.5678 2.96809 65.0003 2.53545 65.0003 2.00179C65.0003 1.46813 64.5678 1.03549 64.034 1.03549H58.6195C58.2852 0.45841 57.6625 0.0691833 56.9475 0.0691833H55.0149V21.672H19.7831C19.7831 14.8735 19.7831 8.20791 19.7831 8.02431H15.9179V25.5372H13.019C10.2018 25.5372 7.63901 26.641 5.735 28.4361H1.09546V36.1665H19.7831C19.7831 35.9044 19.7831 31.1025 19.7831 25.5372H31.6949H56.9475C57.6625 25.5372 58.2852 25.148 58.6195 24.5709H62.7455C63.2793 24.5709 63.7118 24.1383 63.7118 23.6046C63.7118 23.0709 63.2793 22.6383 62.7455 22.6383H58.8801V19.1702H64.034C64.5678 19.1702 65.0003 18.7375 65.0003 18.2039C65.0003 17.6702 64.5678 17.2374 64.034 17.2374Z" fill="#FF6344"/>
<path d="M0.966303 36.1663H8.03913V32.3011H0.966303C0.432646 32.3011 0 32.7338 0 33.2674V35.2C0 35.7338 0.432646 36.1663 0.966303 36.1663Z" fill="#8B9BA9"/>
<path d="M15.9179 11.8895H6.66405L4.82666 20.0602H15.9179V11.8895Z" fill="#9DC6FB"/>
<path d="M12.2832 16.195H5.69582L4.82666 20.0602H15.9179V11.8895H12.2832V16.195Z" fill="#80B4FB"/>
<path d="M45.8667 42.9305C49.6024 42.9305 52.6308 39.9021 52.6308 36.1663C52.6308 32.4306 49.6024 29.4022 45.8667 29.4022C42.1309 29.4022 39.1025 32.4306 39.1025 36.1663C39.1025 39.9021 42.1309 42.9305 45.8667 42.9305Z" fill="#4D5967"/>
<path d="M47.2501 29.5449C46.4572 31.0097 46.6789 32.8784 47.9171 34.1164L43.8174 38.2161C42.5793 36.978 40.7106 36.7561 39.2457 37.5491C39.8858 40.6177 42.6113 42.9304 45.8672 42.9304C49.597 42.9304 52.6313 39.8961 52.6313 36.1663C52.6312 32.9104 50.3187 30.185 47.2501 29.5449Z" fill="#35404A"/>
<path d="M45.8664 39.0654C47.4675 39.0654 48.7654 37.7675 48.7654 36.1665C48.7654 34.5655 47.4675 33.2676 45.8664 33.2676C44.2654 33.2676 42.9675 34.5655 42.9675 36.1665C42.9675 37.7675 44.2654 39.0654 45.8664 39.0654Z" fill="#FFF9EB"/>
<path d="M13.0188 42.9305C16.7545 42.9305 19.7829 39.9021 19.7829 36.1663C19.7829 32.4306 16.7545 29.4022 13.0188 29.4022C9.28304 29.4022 6.25464 32.4306 6.25464 36.1663C6.25464 39.9021 9.28304 42.9305 13.0188 42.9305Z" fill="#4D5967"/>
<path d="M14.4019 29.5449C13.609 31.0097 13.8308 32.8784 15.0689 34.1164L10.9692 38.2161C9.7312 36.978 7.8625 36.7561 6.39758 37.5491C7.03766 40.6177 9.76315 42.9304 13.0191 42.9304C16.7489 42.9304 19.7832 39.8961 19.7832 36.1663C19.7832 32.9104 17.4706 30.185 14.4019 29.5449Z" fill="#35404A"/>
<path d="M13.0185 39.0654C14.6196 39.0654 15.9175 37.7675 15.9175 36.1665C15.9175 34.5655 14.6196 33.2676 13.0185 33.2676C11.4175 33.2676 10.1196 34.5655 10.1196 36.1665C10.1196 37.7675 11.4175 39.0654 13.0185 39.0654Z" fill="#FFF9EB"/>
<path d="M29.5608 10.8712V11.8375H30.7846C31.3183 11.8375 31.7507 12.2699 31.7507 12.8036C31.7507 13.3374 31.3183 13.7699 30.7846 13.7699H29.5608V15.7023C29.5608 16.2361 29.1281 16.6686 28.5946 16.6686C28.0611 16.6686 27.6285 16.2362 27.6285 15.7023V9.90512C27.6285 9.37146 28.0611 8.93907 28.5946 8.93907H31.5575C32.0912 8.93907 32.5236 9.37146 32.5236 9.90512C32.5236 10.4389 32.0912 10.8714 31.5575 10.8714H29.5608V10.8712Z" fill="#FFF9EB"/>
<path d="M38.7695 15.0216C39.145 15.4004 39.1425 16.0122 38.7637 16.3879C38.5751 16.5746 38.3293 16.668 38.0833 16.668C37.8347 16.668 37.5861 16.5727 37.3973 16.3821L35.7646 14.7357H35.2492V15.7017C35.2492 16.2355 34.8166 16.668 34.2831 16.668C33.7495 16.668 33.317 16.2356 33.317 15.7017V9.90454C33.317 9.37088 33.7495 8.93849 34.2831 8.93849H36.1674C37.7566 8.93849 39.0496 10.2389 39.0496 11.837C39.0496 12.7799 38.5993 13.6188 37.9037 14.1485L38.7695 15.0216ZM37.1172 11.837C37.1172 11.3041 36.691 10.8707 36.1674 10.8707H35.2492V12.8031H36.1674C36.691 12.8031 37.1172 12.3696 37.1172 11.837Z" fill="#FFF9EB"/>
<path d="M45.0385 15.7016C45.0385 16.2354 44.6061 16.6679 44.0724 16.6679H41.1095C40.5759 16.6679 40.1434 16.2355 40.1434 15.7016V9.90439C40.1434 9.37073 40.5759 8.93834 41.1095 8.93834H44.0724C44.6061 8.93834 45.0385 9.37073 45.0385 9.90439C45.0385 10.4382 44.6061 10.8707 44.0724 10.8707H42.0756V11.837H43.2995C43.8332 11.837 44.2655 12.2694 44.2655 12.8032C44.2655 13.337 43.8332 13.7695 43.2995 13.7695H42.0756V14.7356H44.0724C44.6061 14.7355 45.0385 15.1679 45.0385 15.7016Z" fill="#FFF9EB"/>
<path d="M51.0341 15.7016C51.0341 16.2354 50.6017 16.6679 50.068 16.6679H47.1051C46.5716 16.6679 46.139 16.2355 46.139 15.7016V9.90439C46.139 9.37073 46.5716 8.93834 47.1051 8.93834H50.068C50.6017 8.93834 51.0341 9.37073 51.0341 9.90439C51.0341 10.4382 50.6017 10.8707 50.068 10.8707H48.0713V11.837H49.2951C49.8288 11.837 50.2612 12.2694 50.2612 12.8032C50.2612 13.337 49.8288 13.7695 49.2951 13.7695H48.0713V14.7356H50.068C50.6017 14.7355 51.0341 15.1679 51.0341 15.7016Z" fill="#FFF9EB"/>
</svg>
