<svg width="65" height="65" viewBox="0 0 65 65" fill="none" xmlns="http://www.w3.org/2000/svg">
<g clip-path="url(#clip0_2_397)">
<path d="M61.2561 24.0855L62.2284 22.3315C62.4872 21.8645 62.3185 21.276 61.8514 21.0173C61.4625 20.8016 60.9905 20.8835 60.6936 21.1859C56.4562 8.60564 44.6238 0.00297546 31.1635 0.00297546C22.8394 0.00297546 15.0135 3.24449 9.12758 9.13056C3.24152 15.0166 0 22.8424 0 31.1665C0 38.2514 2.31725 44.9279 6.70102 50.474C10.9528 55.8532 16.9363 59.7303 23.5494 61.3911C24.9691 61.7477 26.4398 61.9685 28.0457 62.0661C28.0657 62.0672 28.0856 62.0679 28.1053 62.0679C28.6125 62.0679 29.0382 61.6728 29.0694 61.1597C29.1017 60.6267 28.6961 60.1685 28.163 60.1361C26.6779 60.0458 25.3228 59.8429 24.0204 59.5158C11.0161 56.2496 1.93362 44.5921 1.93362 31.1665C1.93362 15.0491 15.0461 1.93659 31.1635 1.93659C43.7494 1.93659 54.818 9.95454 58.824 21.693C58.4289 21.6234 58.0163 21.8054 57.8109 22.1758C57.5521 22.6427 57.7208 23.2313 58.1877 23.49L59.9146 24.4473C59.966 24.4779 60.3008 24.6701 60.7052 24.5408C61.0583 24.4283 61.2216 24.1483 61.2561 24.0855Z" fill="#D3CDBF"/>
<path d="M47.6089 10.0999L10.2256 47.4832C9.84805 47.8609 9.84805 48.4729 10.2256 48.8505C10.4143 49.0392 10.6618 49.1336 10.9092 49.1336C11.1566 49.1336 11.4041 49.0392 11.5928 48.8505L48.9761 11.4672C49.3537 11.0895 49.3537 10.4775 48.9761 10.0999C48.5985 9.72258 47.9864 9.72258 47.6089 10.0999Z" fill="#D3CDBF"/>
<path d="M12.3724 16.4347C8.40898 16.4347 7.06228 21.5936 9.15213 21.5936C9.68581 21.5936 10.1189 21.1611 10.1189 20.6268C10.1189 19.3842 11.1298 18.3735 12.3722 18.3735C14.4451 18.3735 15.4186 20.9578 13.8522 22.3262L8.51339 26.9912C7.84281 27.5772 8.25867 28.686 9.14955 28.686H15.5949C16.1289 28.686 16.5618 28.2482 16.5618 27.7141C16.5618 27.1801 16.1289 26.7473 15.5949 26.7473H11.7347L15.1277 23.7862C18.0316 21.2518 16.2404 16.4347 12.3724 16.4347Z" fill="#46525E"/>
<path d="M26.293 24.169H24.6865L24.6815 17.403C24.681 16.8693 24.2484 16.4371 23.7147 16.4371C23.181 16.4371 22.7479 16.8697 22.7479 17.4039V24.169H19.2799C19.2999 24.1115 20.8791 19.5765 20.8947 19.5177C21.2373 18.2134 19.4596 17.7485 19.0632 18.8907L17.003 24.8237C16.7851 25.4515 17.252 26.1076 17.9163 26.1076H22.7476C22.7474 27.7631 22.6646 28.0355 23.032 28.4026C23.6402 29.0112 24.6864 28.5751 24.6864 27.7165V26.1078H26.2929C26.8269 26.1078 27.2597 25.675 27.2597 25.141C27.2598 24.5873 26.8144 24.169 26.293 24.169Z" fill="#46525E"/>
<path d="M41.9991 32.3574C41.8232 32.0728 41.5124 31.8996 41.1777 31.8996H35.2567C34.7233 31.8996 34.291 32.332 34.291 32.8654C34.291 33.3988 34.7233 33.8312 35.2567 33.8312H39.6161L35.1624 42.7536C34.9242 43.2308 35.1179 43.8107 35.5951 44.0489C35.7337 44.1182 35.8808 44.1509 36.0257 44.1509C36.3802 44.1509 36.7215 43.955 36.8905 43.6163L42.0418 33.2969C42.1913 32.9973 42.1752 32.642 41.9991 32.3574Z" fill="#46525E"/>
<path d="M56.4998 27.325C54.8349 27.6277 53.6257 29.0775 53.6257 30.7695V33.9483C53.6257 35.6408 54.8361 37.0912 56.5013 37.3938L56.8878 37.4641C55.1262 46.9205 47.8706 54.4686 38.5699 56.658C38.3332 54.9227 36.8511 53.629 35.0998 53.629H30.9009C29.1497 53.629 27.6677 54.9224 27.4312 56.6575C26.7431 61.7036 30.6239 65.2263 34.8462 64.9848C51.118 64.0539 64.1367 50.999 64.9901 34.6901C65.2222 30.2526 61.3463 26.4438 56.4998 27.325Z" fill="#6C7A88"/>
<path d="M34.8462 64.9844C51.1179 64.0536 64.1366 50.9987 64.99 34.6898C65.0609 33.3344 64.747 32.0387 64.1409 30.9164C62.4899 31.2858 61.2207 32.7165 61.128 34.4879C60.3764 48.8515 48.9827 60.3024 34.6253 61.1236C32.856 61.2248 31.4337 62.5009 31.0702 64.1504C32.205 64.7586 33.5081 65.061 34.8462 64.9844Z" fill="#596775"/>
</g>
<defs>
<clipPath id="clip0_2_397">
<rect width="65" height="65" fill="white"/>
</clipPath>
</defs>
</svg>
